# xmcd CD database file
#
# Track frame offsets:
#	150
#	16345
#	33070
#	47225
#	69652
#	88695
#	106205
#	121890
#	140405
#	160945
#	183292
#	205667
#	224562
#	239035
#	252967
#	268022
#
# Disc length: 3974 seconds
#
# Revision: 0
# Processed by: cddbd v1.5.1PL0 Copyright (c) Steve Scherf et al.
# Submitted via: CDex 1.51
#
DISCID=e40f8410
DTITLE=影山ヒロノブ - The Best Of Hironobu Kageyama
DYEAR=1900
DGENRE=Vocal
TTITLE0=99% I Love You
TTITLE1=Into The Night
TTITLE2=Vivaldi Club
TTITLE3=風の行方
TTITLE4=絆
TTITLE5=Why Baby Why
TTITLE6=Broken Heart
TTITLE7=Love Ballade
TTITLE8=Again
TTITLE9=Sarah(セーラ)
TTITLE10=Last Lady(ラスト･レディ)
TTITLE11=Try Me
TTITLE12=真夜中のダンス
TTITLE13=Hot Winter
TTITLE14=海辺のコテージ
TTITLE15=Game Is Over
EXTD=
EXTT0=
EXTT1=
EXTT2=
EXTT3=
EXTT4=
EXTT5=
EXTT6=
EXTT7=
EXTT8=
EXTT9=
EXTT10=
EXTT11=
EXTT12=
EXTT13=
EXTT14=
EXTT15=
PLAYORDER=
